<svg width="96" height="96" viewBox="0 0 96 96" fill="none" xmlns="http://www.w3.org/2000/svg">
<path d="M89.2796 43.3807L86.7936 33.4366C87.4733 33.2922 87.9832 32.6892 87.9832 31.9668V30.3635C87.9832 26.8823 85.1511 24.0503 81.6701 24.0503H70.3466V20.7432C70.3466 19.0302 68.9531 17.6367 67.2401 17.6367H9.51975C7.80675 17.6367 6.41325 19.0302 6.41325 20.7432V48.0001C6.41325 48.8302 7.08619 49.5033 7.91644 49.5033C8.7465 49.5033 9.41962 48.8303 9.41962 48.0001V20.7432C9.41962 20.6879 9.46444 20.6431 9.51975 20.6431H67.2399C67.2952 20.6431 67.3401 20.6879 67.3401 20.7432V48.0005C67.3401 48.8305 68.013 49.5037 68.8432 49.5037C69.6733 49.5037 70.3464 48.8307 70.3464 48.0005V46.2965H88.0781C88.0796 46.2965 88.0807 46.2968 88.0821 46.2968C88.0836 46.2968 88.0849 46.2967 88.0862 46.2967C90.2681 46.2982 92.1208 47.7303 92.7572 49.7037H88.0832C87.2531 49.7037 86.58 50.3767 86.58 51.2069V54.4135C86.58 57.0106 88.6927 59.1234 91.2898 59.1234H92.9934V65.737H89.0631C87.7719 62.009 84.228 59.3236 80.0664 59.3236C75.9049 59.3236 72.3607 62.009 71.0698 65.737H70.3461V54.4134C70.3461 53.5833 69.6731 52.9102 68.8429 52.9102C68.0128 52.9102 67.3397 53.5831 67.3397 54.4134V65.7367H36.1532C34.8621 62.0086 31.3181 59.3232 27.1566 59.3232C22.995 59.3232 19.4509 62.0086 18.1599 65.7367H9.51975C9.46444 65.7367 9.41962 65.6919 9.41962 65.6365V62.3296H15.9332C16.7633 62.3296 17.4364 61.6567 17.4364 60.8264C17.4364 59.9962 16.7634 59.3232 15.9332 59.3232H1.50319C0.673125 59.3232 0 59.9962 0 60.8264C0 61.6567 0.672938 62.3296 1.50319 62.3296H6.41344V65.6365C6.41344 67.3495 7.80694 68.743 9.51994 68.743H17.6394C17.6391 68.7764 17.6368 68.8096 17.6368 68.8432C17.6368 74.0924 21.9075 78.3629 27.1566 78.3629C32.4056 78.3629 36.6763 74.0924 36.6763 68.8432C36.6763 68.8094 36.6741 68.7764 36.6737 68.743H70.5493C70.5489 68.7764 70.5467 68.8096 70.5467 68.8432C70.5467 74.0924 74.8174 78.3629 80.0664 78.3629C85.3155 78.3629 89.5862 74.0924 89.5862 68.8432C89.5862 68.8094 89.5839 68.7764 89.5836 68.743H94.4966C95.3267 68.743 95.9998 68.0701 95.9998 67.2398V51.2065C96 47.248 93.0793 43.9591 89.2796 43.3807ZM70.3466 27.0565H81.6701C83.4936 27.0565 84.9771 28.54 84.9771 30.3635V30.4636H70.3466V27.0565ZM70.3466 43.2903V33.4698H83.7032L86.1583 43.2903H70.3466ZM27.1566 75.3571C23.565 75.3571 20.643 72.4353 20.643 68.8435C20.643 65.2518 23.565 62.33 27.1566 62.33C30.7481 62.33 33.6701 65.2518 33.6701 68.8435C33.6701 72.4353 30.7481 75.3571 27.1566 75.3571ZM80.0668 75.3571C76.4753 75.3571 73.5533 72.4353 73.5533 68.8435C73.5533 65.2518 76.4753 62.33 80.0668 62.33C83.6584 62.33 86.5804 65.2518 86.5804 68.8435C86.5804 72.4353 83.6584 75.3571 80.0668 75.3571ZM92.9938 56.117H91.2902C90.3508 56.117 89.5866 55.3527 89.5866 54.4134V52.7097H92.9936V56.117H92.9938Z" fill="white"/>
<path d="M27.1566 65.7373C25.4436 65.7373 24.0501 67.1308 24.0501 68.8438C24.0501 70.5568 25.4436 71.9503 27.1566 71.9503C28.8696 71.9503 30.2631 70.5568 30.2631 68.8438C30.2631 67.1308 28.8696 65.7373 27.1566 65.7373Z" fill="white"/>
<path d="M80.0668 65.7373C78.3538 65.7373 76.9603 67.1308 76.9603 68.8438C76.9603 70.5568 78.3538 71.9503 80.0668 71.9503C81.7798 71.9503 83.1733 70.5568 83.1733 68.8438C83.1733 67.1308 81.7798 65.7373 80.0668 65.7373Z" fill="white"/>
<path d="M62.43 59.3232H39.9833C39.1532 59.3232 38.4801 59.9962 38.4801 60.8264C38.4801 61.6567 39.153 62.3296 39.9833 62.3296H62.43C63.2601 62.3296 63.9332 61.6567 63.9332 60.8264C63.9332 59.9962 63.2602 59.3232 62.43 59.3232Z" fill="white"/>
<path d="M23.9499 52.9102H4.70982C3.87976 52.9102 3.20663 53.5831 3.20663 54.4133C3.20663 55.2436 3.87957 55.9165 4.70982 55.9165H23.9499C24.78 55.9165 25.4531 55.2436 25.4531 54.4133C25.4531 53.5831 24.78 52.9102 23.9499 52.9102Z" fill="white"/>
<path d="M52.2696 32.5065C51.6827 31.9197 50.7308 31.9197 50.1439 32.5067L36.7766 45.8738L29.8228 38.92C29.2358 38.3329 28.284 38.3329 27.6971 38.92C27.1101 39.507 27.1101 40.4586 27.6971 41.0457L35.7139 49.0624C36.0073 49.356 36.3921 49.5027 36.7766 49.5027C37.1612 49.5027 37.5461 49.356 37.8394 49.0624L52.2694 34.6324C52.8565 34.0452 52.8565 33.0936 52.2696 32.5065Z" fill="white"/>
</svg>
