<svg width="73" height="73" viewBox="0 0 73 73" fill="none" xmlns="http://www.w3.org/2000/svg">
<g clip-path="url(#clip0)">
<path d="M12.1294 64.8631C11.8644 64.5977 11.4965 64.4453 11.1215 64.4453C10.7466 64.4453 10.3787 64.5977 10.1135 64.8631C9.84831 65.1284 9.69576 65.4961 9.69576 65.8711C9.69576 66.2461 9.84817 66.6139 10.1135 66.879C10.3787 67.1442 10.7466 67.2969 11.1215 67.2969C11.4965 67.2969 11.8644 67.1443 12.1294 66.879C12.3946 66.6139 12.5473 66.2461 12.5473 65.8711C12.5473 65.4961 12.3948 65.1283 12.1294 64.8631Z" fill="white"/>
<path d="M66.9439 26.0828C66.6787 25.8175 66.3123 25.665 65.9359 25.665C65.5609 25.665 65.193 25.8175 64.9278 26.0828C64.6628 26.348 64.5101 26.7158 64.5101 27.0908C64.5101 27.4658 64.6626 27.8337 64.9278 28.0987C65.193 28.3639 65.5609 28.5166 65.9359 28.5166C66.3123 28.5166 66.6787 28.364 66.9439 28.0987C67.2104 27.8337 67.3629 27.4658 67.3629 27.0908C67.3629 26.7158 67.2104 26.348 66.9439 26.0828Z" fill="white"/>
<path d="M72.5831 0.417611C72.3156 0.150277 71.9529 0 71.5746 0L36.5012 0.00185352C35.7139 0.00185352 35.0756 0.640318 35.0756 1.42763V5.50494L21.5608 9.12628C20.8001 9.33017 20.3487 10.1119 20.5526 10.8724L27.557 37.013L21.4976 43.0724C20.7264 41.9463 19.4315 41.2058 17.9668 41.2058H4.27972C1.92119 41.2058 0.0025177 43.1246 0.0025177 45.483V68.7227C0.0025177 71.0812 1.92119 73 4.27972 73H17.9669C19.9706 73 21.6561 71.6147 22.1181 69.7521L23.8134 71.2305C25.1221 72.3717 26.7988 73.0001 28.5353 73.0001H71.5749C72.3622 73.0001 73.0007 72.3617 73.0007 71.5744V1.42578C73.0004 1.04766 72.8504 0.684945 72.5831 0.417611ZM19.3924 68.7228C19.3924 69.5088 18.7528 70.1486 17.9667 70.1486H4.27958C3.4934 70.1486 2.8538 69.509 2.8538 68.7228V45.4831C2.8538 44.697 3.4934 44.0574 4.27958 44.0574H9.6974V60.4816C9.6974 61.269 10.3359 61.9074 11.1232 61.9074C11.9105 61.9074 12.549 61.269 12.549 60.4816V44.0574H17.9668C18.753 44.0574 19.3926 44.697 19.3926 45.4831V68.7228H19.3924ZM23.6759 11.5116L35.0756 8.45702V13.7403L34.12 13.9963C33.7546 14.0943 33.4434 14.3331 33.2543 14.6606C33.0653 14.9881 33.0139 15.3772 33.1119 15.7425C33.6598 17.7872 32.442 19.8963 30.3973 20.4443C30.0316 20.5424 29.7198 20.7816 29.5309 21.1098C29.342 21.4379 29.2911 21.8277 29.3899 22.1933L34.9474 42.7727H32.0859L30.6112 37.0034C30.5643 36.8198 30.4822 36.6506 30.3722 36.5034L23.6759 11.5116ZM35.0756 20.2787V32.3096L32.4751 22.6806C33.5614 22.1197 34.4504 21.2805 35.0756 20.2787ZM55.559 70.1484H28.535C27.4877 70.1484 26.4764 69.7695 25.6871 69.0812L22.244 66.0784V46.3588L28.4687 40.1342L29.5976 44.5512C29.759 45.1824 30.3275 45.6239 30.9789 45.6239L59.0103 45.6256C60.111 45.6256 61.0064 46.521 61.0064 47.6217C61.0064 48.7224 60.111 49.6178 59.0103 49.6178H44.647C43.8597 49.6178 43.2212 50.2562 43.2212 51.0435C43.2212 51.8309 43.8597 52.4693 44.647 52.4693H63.473C64.5737 52.4693 65.4691 53.3647 65.4691 54.4654C65.4691 55.5661 64.5737 56.4615 63.473 56.4615H44.647C43.8597 56.4615 43.2212 57.1 43.2212 57.8873C43.2212 58.6746 43.8597 59.3131 44.647 59.3131H60.4223C61.523 59.3131 62.4184 60.2085 62.4184 61.3092C62.4184 62.4099 61.523 63.3053 60.4223 63.3053H44.647C43.8597 63.3053 43.2212 63.9437 43.2212 64.731C43.2212 65.5184 43.8597 66.1568 44.647 66.1568H55.559C56.6597 66.1568 57.555 67.0522 57.555 68.1529C57.5549 69.253 56.6595 70.1484 55.559 70.1484ZM70.1491 70.1484H70.149H59.9747C60.2512 69.5392 60.4065 68.8638 60.4065 68.1523C60.4065 67.4409 60.2512 66.7655 59.9747 66.1562H60.4223C63.0952 66.1562 65.2698 63.9817 65.2698 61.3087C65.2698 60.5291 65.0837 59.7924 64.7552 59.1391C66.8078 58.5754 68.3204 56.6941 68.3204 54.4651C68.3204 53.3838 67.9642 52.3842 67.3636 51.5772V33.5069C67.3636 32.7195 66.7251 32.0811 65.9378 32.0811C65.1505 32.0811 64.512 32.7195 64.512 33.5069V49.7311C64.1769 49.6577 63.8295 49.6178 63.4728 49.6178H63.426C63.7024 49.0085 63.8577 48.3331 63.8577 47.6217C63.8577 44.9486 61.6831 42.7742 59.0102 42.7742H56.7183C59.1519 41.7305 60.8612 39.3115 60.8612 36.5C60.8612 32.7375 57.8003 29.6765 54.0378 29.6765C50.2754 29.6765 47.2144 32.7375 47.2144 36.5C47.2144 39.3115 48.9238 41.7305 51.3573 42.7742H43.5636V15.6641C46.1106 15.109 48.1204 13.0994 48.6753 10.5522H59.4002C59.9551 13.0994 61.9648 15.109 64.5119 15.6641V20.0968C64.5119 20.8841 65.1503 21.5226 65.9376 21.5226C66.725 21.5226 67.3634 20.8841 67.3634 20.0968V14.3911C67.3634 13.6038 66.725 12.9653 65.9376 12.9653C63.8208 12.9653 62.0989 11.2431 62.0989 9.12643C62.0989 8.33911 61.4604 7.70064 60.6731 7.70064H47.4025C46.6152 7.70064 45.9767 8.33911 45.9767 9.12643C45.9767 11.2433 44.2546 12.9653 42.1379 12.9653C41.3506 12.9653 40.7122 13.6038 40.7122 14.3911V42.774H37.9273V2.85313L70.1491 2.85156V70.1484ZM54.0381 40.4719C51.8479 40.4719 50.0663 38.6901 50.0663 36.5001C50.0663 34.3101 51.8481 32.5282 54.0381 32.5282C56.2281 32.5282 58.0099 34.31 58.0099 36.5C58.0099 38.69 56.2282 40.4719 54.0381 40.4719Z" fill="white"/>
</g>
<defs>
<clipPath id="clip0">
<rect width="73" height="73" fill="white"/>
</clipPath>
</defs>
</svg>
