<svg width="77" height="77" viewBox="0 0 77 77" fill="none" xmlns="http://www.w3.org/2000/svg">
<path d="M52.218 45.2993L41.4821 37.2474V20.8455C41.4821 19.1963 40.149 17.8633 38.4998 17.8633C36.8506 17.8633 35.5176 19.1963 35.5176 20.8455V38.7387C35.5176 39.678 35.959 40.5638 36.7105 41.1245L48.6392 50.0711C49.1759 50.4737 49.8023 50.6675 50.4255 50.6675C51.3351 50.6675 52.2297 50.2589 52.8143 49.4716C53.8046 48.1563 53.5362 46.2865 52.218 45.2993Z" fill="white"/>
<path d="M38.5 0C17.2698 0 0 17.2698 0 38.5C0 59.7302 17.2698 77 38.5 77C59.7302 77 77 59.7302 77 38.5C77 17.2698 59.7302 0 38.5 0ZM38.5 71.0357C20.5622 71.0357 5.96434 56.4378 5.96434 38.5C5.96434 20.5622 20.5622 5.96434 38.5 5.96434C56.4408 5.96434 71.0357 20.5622 71.0357 38.5C71.0357 56.4378 56.4378 71.0357 38.5 71.0357Z" fill="white"/>
</svg>
