<svg width="50" height="50" viewBox="0 0 50 50" fill="none" xmlns="http://www.w3.org/2000/svg">
<path d="M22.7637 0.107437C18.0859 0.527359 13.7207 2.21681 9.89259 5.08791C8.65235 6.02541 6.53321 8.08595 5.53712 9.32619C0.585947 15.4981 -1.12304 23.3692 0.791025 31.1524C1.59181 34.3848 3.33009 37.8809 5.46876 40.5762C8.78907 44.7461 13.7598 47.9492 18.8477 49.209C25.8399 50.9375 32.9102 49.7363 38.7988 45.8301C41.4942 44.043 44.1113 41.4258 45.8496 38.7695C49.7559 32.832 50.9278 25.8301 49.209 18.8477C48.7988 17.1973 48.2715 15.7617 47.4121 14.0137C44.9903 9.05275 40.9277 4.99025 35.9863 2.58791C34.1992 1.71877 32.9688 1.25978 31.2988 0.830093C28.418 0.0976714 25.5957 -0.146469 22.7637 0.107437ZM28.3692 5.56642C34.1406 6.64064 38.9746 9.97072 41.9727 14.9512C44.4727 19.1309 45.3223 24.2969 44.2871 29.1602C42.7051 36.6504 36.6504 42.7051 29.1602 44.2871C26.0547 44.9512 22.6758 44.834 19.6777 43.9844C16.3184 43.0371 13.5938 41.4258 11.0742 38.916C7.45118 35.3028 5.49806 30.8106 5.31251 25.6836C5.24415 23.877 5.35157 22.5293 5.7129 20.8399C7.44142 12.6367 14.4043 6.33791 22.8125 5.37111C24.0723 5.22463 27.1289 5.33205 28.3692 5.56642Z" fill="white" fill-opacity="0.05"/>
<path d="M20.6641 15.3418C20.1562 15.4688 19.7559 15.7617 19.5312 16.211C19.3457 16.582 19.3359 16.8164 19.3359 25C19.3359 33.1836 19.3457 33.418 19.5312 33.7891C19.9902 34.6875 21.1719 34.9805 22.0605 34.4141C22.8125 33.9258 33.0078 26.582 33.2812 26.3281C33.7402 25.9082 33.8867 25.5762 33.8867 25C33.8867 24.4238 33.7402 24.0918 33.2812 23.6719C32.9297 23.3399 22.5098 15.8594 21.9727 15.5469C21.5332 15.293 21.1328 15.2344 20.6641 15.3418Z" fill="white" fill-opacity="0.05"/>
</svg>
