<svg width="84" height="85" viewBox="0 0 84 85" fill="none" xmlns="http://www.w3.org/2000/svg">
<path d="M83.4895 25.5993C83.2856 21.1519 82.5778 18.1148 81.5427 15.4576C80.4918 12.6697 78.8435 10.1445 76.7133 8.05725C74.6223 5.93176 72.0909 4.28632 69.297 3.23696C66.6335 2.20482 63.5905 1.49908 59.1335 1.29698C54.6683 1.09298 53.2417 1.04453 41.8706 1.04453C30.4996 1.04453 29.0729 1.09298 24.6076 1.2957C20.1508 1.49908 17.1077 2.20545 14.4441 3.23824C11.6502 4.28696 9.11958 5.93176 7.02784 8.05725C4.89777 10.1439 3.24878 12.6691 2.19716 15.457C1.16279 18.1148 0.455532 21.1519 0.253002 25.5987C0.048556 30.0549 0 31.4779 0 42.8244C0 54.1717 0.048556 55.5953 0.253002 60.051C0.456171 64.4977 1.16407 67.5349 2.19907 70.1927C3.25005 72.9798 4.89841 75.5058 7.02848 77.5924C9.11958 79.7179 11.6509 81.3626 14.4448 82.4114C17.1077 83.4447 20.1514 84.1505 24.6083 84.3539C29.0742 84.5573 30.5002 84.6051 41.8713 84.6051C53.2423 84.6051 54.669 84.5573 59.1342 84.3539C63.5911 84.1505 66.6341 83.4447 69.2978 82.4114C74.9218 80.2413 79.3679 75.8048 81.5427 70.1927C82.5784 67.5349 83.2856 64.4977 83.4895 60.051C83.6926 55.5947 83.7411 54.1717 83.7411 42.8251C83.7411 31.4779 83.6926 30.0549 83.4895 25.5993ZM75.9524 59.7086C75.7665 63.7824 75.0842 65.9946 74.5111 67.4666C73.1024 71.1107 70.2164 73.9904 66.5646 75.3961C65.0894 75.9679 62.8723 76.6488 58.7898 76.8343C54.3757 77.0357 53.0512 77.0779 41.8706 77.0779C30.6893 77.0779 29.3656 77.0357 24.9507 76.8343C20.8689 76.6488 18.6519 75.9679 17.176 75.3961C15.3578 74.7261 13.7126 73.6582 12.362 72.2703C10.9711 70.9226 9.90095 69.2816 9.22947 67.4666C8.65638 65.9946 7.97405 63.7824 7.78812 59.7086C7.58687 55.3034 7.54406 53.9817 7.54406 42.8257C7.54406 31.6691 7.58687 30.3482 7.78812 25.9422C7.97469 21.8685 8.65638 19.6564 9.22947 18.1843C9.90095 16.3692 10.9717 14.7277 12.362 13.38C13.7126 11.9921 15.3578 10.9242 17.1767 10.2548C18.6519 9.6823 20.8689 9.00206 24.9514 8.81591C29.3662 8.61509 30.6905 8.57238 41.8706 8.57238H41.87C53.05 8.57238 54.3744 8.61509 58.7898 8.81655C62.8723 9.00206 65.0886 9.68294 66.5646 10.2548C68.3829 10.9248 70.028 11.9927 71.3786 13.38C72.7694 14.7277 73.8395 16.3692 74.5105 18.1843C75.0842 19.6564 75.7665 21.8685 75.9524 25.9422C76.1537 30.3476 76.1965 31.6691 76.1965 42.8251C76.1965 53.9817 76.1543 55.3027 75.9524 59.7086Z" fill="white"/>
<path d="M41.8701 21.3699C29.9955 21.3699 20.3694 30.9761 20.3694 42.8251C20.3694 54.6741 29.9955 64.2796 41.8701 64.2796C53.7452 64.2796 63.3715 54.6741 63.3715 42.8251C63.3715 30.9761 53.7452 21.3699 41.8701 21.3699ZM41.8701 56.7518C34.1624 56.7511 27.9134 50.5162 27.914 42.8245C27.914 35.1334 34.1624 28.8979 41.8707 28.8979C49.5789 28.8985 55.8273 35.1334 55.8273 42.8245C55.8273 50.5162 49.5783 56.7518 41.8701 56.7518Z" fill="white"/>
<path d="M69.2454 20.5228C69.2454 23.2915 66.9959 25.5362 64.2211 25.5362C61.4458 25.5362 59.1963 23.2915 59.1963 20.5228C59.1963 17.7533 61.4458 15.5086 64.2211 15.5086C66.9959 15.5086 69.2454 17.7533 69.2454 20.5228Z" fill="white"/>
</svg>
