<svg width="91" height="91" viewBox="0 0 91 91" fill="none" xmlns="http://www.w3.org/2000/svg">
<path fill-rule="evenodd" clip-rule="evenodd" d="M75.6775 15.1973C67.6961 7.20657 57.0815 2.804 45.7734 2.79932C22.4718 2.79932 3.50765 21.7629 3.49828 45.0708C3.49515 52.5215 5.44155 59.7948 9.14117 66.2057L3.14368 88.1118L25.5543 82.233C31.7294 85.6015 38.6814 87.3766 45.7562 87.3787H45.7739C69.0729 87.3787 88.0391 68.4135 88.0479 45.1046C88.0526 33.8084 83.6594 23.1876 75.6775 15.1973ZM45.7734 80.2393H45.7588C39.4541 80.2367 33.2707 78.5423 27.8751 75.3415L26.5926 74.5797L13.2938 78.0684L16.8435 65.1023L16.0077 63.773C12.4904 58.1785 10.633 51.7124 10.6361 45.0734C10.6434 25.7005 26.4062 9.93924 45.7874 9.93924C55.1726 9.94236 63.995 13.6019 70.6288 20.2435C77.2626 26.8851 80.9137 35.7132 80.9106 45.102C80.9023 64.4764 65.1405 80.2393 45.7734 80.2393ZM65.0468 53.9233C63.9908 53.3943 58.7973 50.8397 57.8288 50.4866C56.8613 50.1341 56.1563 49.9586 55.4528 51.0157C54.7483 52.0727 52.7243 54.4523 52.1078 55.1568C51.4912 55.8619 50.8758 55.9504 49.8193 55.4214C48.7627 54.8928 45.3594 53.777 41.3245 50.1784C38.1846 47.3775 36.0648 43.9184 35.4483 42.8614C34.8328 41.8033 35.4431 41.2868 35.9117 40.7057C37.0552 39.2857 38.2002 37.797 38.5522 37.0925C38.9047 36.3875 38.7282 35.7704 38.4637 35.2419C38.2002 34.7134 36.0877 29.5141 35.2077 27.3985C34.3496 25.3396 33.4795 25.6177 32.8307 25.5854C32.2152 25.5547 31.5107 25.5484 30.8062 25.5484C30.1022 25.5484 28.9577 25.8124 27.9892 26.8705C27.0212 27.9281 24.2927 30.4832 24.2927 35.6824C24.2927 40.8817 28.0777 45.9044 28.6057 46.6095C29.1337 47.3145 36.0544 57.9838 46.6502 62.5587C49.1705 63.648 51.1377 64.2973 52.6722 64.7842C55.2028 65.5882 57.5049 65.4746 59.3253 65.2028C61.355 64.8993 65.5743 62.6472 66.4553 60.1801C67.3353 57.7125 67.3353 55.5979 67.0708 55.1568C66.8073 54.7163 66.1028 54.4523 65.0468 53.9233Z" fill="white"/>
</svg>
