<svg width="120" height="120" viewBox="0 0 120 120" fill="none" xmlns="http://www.w3.org/2000/svg">
<g clip-path="url(#clip0_112_59)">
<path d="M120 110.81V9.19067C120 5.02161 117.224 1.50317 113.42 0.378174L109.101 2.96286L61.164 54.074L59.6612 58.7713L58.7832 63.2807L73.7316 119.146L76.044 119.999H110.81C115.885 119.999 120 115.885 120 110.81Z" fill="#EA6618"/>
<path d="M0 9.19031V110.809C0 113.952 1.57828 116.725 3.98438 118.382L6.93141 116.971L57.6717 62.6456L59.6611 58.7714L59.7356 55.0261L45.9263 2.48719L43.8342 0H9.19031C4.11469 0 0 4.11469 0 9.19031Z" fill="#D65813"/>
<path d="M59.6609 58.7721L113.42 0.378037C112.572 0.126962 111.693 -0.000445652 110.809 -0.000243901H43.835L59.6614 58.7716L59.6609 58.7721Z" fill="#E05E11"/>
<path d="M9.19078 120H76.0448L59.6616 58.7715L3.98438 118.382C5.51503 119.438 7.33122 120.003 9.19078 120Z" fill="#DE5C16"/>
<path d="M44.493 45.4828H51.1609C53.8178 55.5075 56.8417 64.3041 60.2153 72.2414C64.0366 63.3117 66.8373 54.5086 69.2083 45.4823H75.5092C72.6873 56.6977 68.0711 68.0011 62.7911 79.6683H57.2177C52.1458 68.6123 47.8286 57.2452 44.493 45.4828ZM22.4992 28.1133H37.3258V91.6931H22.4336V86.7919H31.5611V32.8838H22.4992V28.1133ZM97.5784 32.8838H88.5166V86.7919H97.6431V91.6931H82.7514V28.1133H97.578V32.8838H97.5784Z" fill="white"/>
</g>
<defs>
<clipPath id="clip0_112_59">
<rect width="120" height="120" fill="white"/>
</clipPath>
</defs>
</svg>
