<svg width="148" height="148" viewBox="0 0 148 148" fill="none" xmlns="http://www.w3.org/2000/svg">
<g clip-path="url(#clip0_1_3)">
<path d="M74 147C115.199 148.431 147.608 115.304 147 74C147 33.6832 114.317 1 74 1C33.6832 1 1 33.6832 1 74C1 114.317 33.6832 147 74 147Z" fill="url(#paint0_linear_1_3)"/>
<path d="M69.1535 0.0398273C68.8352 0.0687576 67.8225 0.170013 66.911 0.242339C45.8901 2.13727 26.2002 13.4779 13.7294 30.9084C6.78514 40.6 2.3437 51.5935 0.665494 63.238C0.0723363 67.3027 0 68.5033 0 74.0145C0 79.5257 0.0723363 80.7263 0.665494 84.791C4.68739 112.579 24.4641 135.925 51.2864 144.575C56.0895 146.123 61.1531 147.179 66.911 147.816C69.1535 148.061 78.8465 148.061 81.089 147.816C91.028 146.716 99.4479 144.257 107.752 140.019C109.025 139.368 109.271 139.194 109.098 139.05C108.982 138.963 103.557 131.687 97.0463 122.892L85.2121 106.908L70.3832 84.9646C62.2237 72.9007 55.5109 63.0355 55.453 63.0355C55.3951 63.021 55.3372 72.7705 55.3083 84.6753C55.2649 105.52 55.2504 106.359 54.99 106.85C54.6139 107.559 54.3245 107.848 53.7169 108.167C53.254 108.398 52.8489 108.441 50.6643 108.441H48.1615L47.496 108.022C47.062 107.747 46.7437 107.386 46.5267 106.966L46.2229 106.315L46.2518 77.3125L46.2952 48.2955L46.7437 47.7314C46.9752 47.4276 47.4671 47.037 47.8143 46.849C48.4074 46.5597 48.6389 46.5307 51.1417 46.5307C54.0931 46.5307 54.5849 46.6465 55.3517 47.4854C55.5687 47.7169 63.598 59.8097 73.2043 74.3761C82.8106 88.9425 95.9468 108.832 102.399 118.596L114.118 136.345L114.711 135.954C119.962 132.54 125.518 127.68 129.916 122.617C139.276 111.87 145.309 98.7643 147.335 84.791C147.928 80.7263 148 79.5257 148 74.0145C148 68.5033 147.928 67.3027 147.335 63.238C143.313 35.4505 123.536 12.1037 96.7136 3.4536C91.9828 1.92029 86.9482 0.86434 81.306 0.227874C79.9171 0.0832227 70.3543 -0.0758937 69.1535 0.0398273ZM99.4479 44.7949C100.142 45.1421 100.707 45.8075 100.909 46.5018C101.025 46.8779 101.054 54.9205 101.025 73.0453L100.981 99.0536L96.3953 92.0236L91.7947 84.9935V66.0876C91.7947 53.8646 91.8526 46.9936 91.9394 46.6609C92.1709 45.8509 92.6772 45.2144 93.3717 44.8383C93.9648 44.5346 94.1818 44.5056 96.4532 44.5056C98.5943 44.5056 98.9705 44.5346 99.4479 44.7949Z" fill="black"/>
</g>
<defs>
<linearGradient id="paint0_linear_1_3" x1="33.0608" y1="14.3176" x2="114.446" y2="135.162" gradientUnits="userSpaceOnUse">
<stop stop-color="white"/>
<stop offset="1" stop-color="#B3B3B3"/>
</linearGradient>
<clipPath id="clip0_1_3">
<rect width="148" height="148" fill="white"/>
</clipPath>
</defs>
</svg>
