<svg width="683" height="683" viewBox="0 0 683 683" fill="none" xmlns="http://www.w3.org/2000/svg">
<path d="M308.667 1.4665C202 12.5332 108.533 70.5332 51.7332 160.933C-13.2002 264.133 -17.0668 397.867 41.7332 504.667C57.3332 533.067 75.4665 557.333 99.0665 581.067C127.066 609.467 155.2 629.733 191.333 647.467C226 664.4 259.2 674.533 299.333 680.267C315.2 682.533 367.6 682.4 384 680.133C466.8 668.667 537.066 632.133 593.467 571.067C640.133 520.4 669.867 456 680.267 383.333C682.533 367.6 682.533 315.067 680.267 299.333C672.4 243.867 654.8 196.8 625.6 152.8C613.333 134.133 600.933 118.933 583.6 101.467C530.4 47.5998 464.533 14.3998 388.667 3.19983C372.267 0.799834 324.933 -0.266832 308.667 1.4665ZM457.467 83.9998C502.133 88.5332 535.733 105.867 549.867 132C561.067 152.533 560.267 182.933 547.866 212.667C534.266 245.333 498.933 281.067 463.467 297.867C416.667 320.133 348.8 326.667 316.533 312C300.267 304.667 288.267 293.733 284.533 282.667C280.8 271.867 285.333 270.533 294.933 279.467C310.667 294.133 336.667 299.867 368 295.467C416.8 288.667 460.8 266.933 490.533 235.2C520.267 203.467 529.333 166.533 512.267 146.533C491.733 122.533 434.4 117.867 374 135.333C355.333 140.8 338.133 147.467 316.533 157.867C216.8 206 166.133 262.4 177.866 312.533C183.466 336.4 198.533 353.333 247.333 390.667C255.467 396.933 267.2 406.933 273.6 413.067L285.2 424.267L293.6 422.133C314.8 416.933 346.8 415.867 366.133 419.867C407.2 428.4 436.533 460.267 434.4 493.867C433.467 507.067 429.467 515.733 419.867 524.533C412 531.867 401.733 536.933 398 535.6C394.533 534.267 395.733 532.4 403.6 526.4C414.4 518.267 419.2 510 419.733 498.8C421.067 474 400 452.133 366.667 444C351.867 440.4 327.733 439.2 313.467 441.2C297.867 443.467 298.533 442.8 301.6 452.4C307.067 470.133 306.933 496.4 301.2 517.333C288.667 563.6 243.6 598.8 197.333 598.667C185.733 598.533 172.266 596.267 167.2 593.6C162 590.8 153.466 579.867 150.4 572.133C148.133 566.267 147.466 561.867 147.466 551.333C147.333 530.4 153.466 515.467 169.2 498.4C185.866 480.4 221.733 455.067 252.533 439.733L258.933 436.4L253.2 431.733C250 429.2 236 419.067 222 409.333C169.866 372.8 148 352.4 134.266 326.933C121.066 302.267 121.466 282.533 136 252.533C160.8 201.2 222.933 150.933 306 114.667C365.733 88.6665 411.467 79.4665 457.467 83.9998Z" fill="#CC6699"/>
<path d="M259.333 462.8C216.8 487.066 190.933 516.133 187.2 543.6C186.266 551.466 188.8 558.8 193.866 562.133C196.666 563.866 199.466 564.266 207.066 563.733C235.866 561.733 266.666 532.133 274.8 498.666C277.866 486 276.4 457.733 272.533 456.4C271.866 456.133 265.866 459.066 259.333 462.8Z" fill="#CC6699"/>
</svg>
