<svg width="120" height="121" viewBox="0 0 120 121" fill="none" xmlns="http://www.w3.org/2000/svg">
<path d="M96.7682 0.656421C95.7602 1.17214 95.3852 1.54729 94.8695 2.55527L94.2133 3.79775V10.1745C94.2133 13.9719 94.3072 16.9026 94.4711 17.4416C94.7756 18.5668 96.2759 20.2077 97.4251 20.7C97.9175 20.9112 99.0893 21.3096 100.027 21.5674L101.715 22.0598V29.608C101.738 36.1022 101.786 37.2974 102.137 38.0949C102.606 39.2667 102.582 41.4939 102.067 44.0961C100.965 49.4412 98.7609 53.8016 95.6197 56.8488C94.9635 57.4817 94.2599 58.3025 94.0727 58.6536C93.6503 59.4744 93.6503 61.0213 94.096 61.8887C94.4944 62.6629 98.3392 65.9913 99.5583 66.6242C101.129 67.4216 103.45 66.9526 104.692 65.6162C105.419 64.8194 106.896 61.5136 107.81 58.7242C109.31 54.0354 110.248 48.7377 110.599 43.1581C110.764 40.5092 110.905 39.7824 111.35 38.915C111.889 37.8837 111.913 37.6725 111.983 31.46L112.053 25.0604L112.803 25.2476C113.225 25.3415 114.304 25.4355 115.242 25.4355C116.718 25.4355 117.023 25.3648 117.914 24.7319C119.578 23.5601 119.86 22.6927 119.953 18.754C120.024 15.5662 120 15.3317 119.531 14.816C118.875 14.1125 117.609 14.1125 116.953 14.816C116.531 15.285 116.484 15.6361 116.484 18.2857C116.484 20.8639 116.437 21.3096 116.062 21.6381C115.827 21.8719 115.406 22.0364 115.124 22.0364C114.843 22.0364 111.069 21.0285 106.708 19.8093C100.121 17.9339 98.6909 17.4649 98.2685 16.9725C97.7296 16.3863 97.7296 16.269 97.7296 10.3384C97.7296 4.78236 97.7529 4.26664 98.1513 3.91494C98.5504 3.56331 99.511 3.51648 107.154 3.51648C117.234 3.51648 116.484 3.30549 116.484 6.25928C116.484 8.55693 116.953 9.37703 118.242 9.37703C119.578 9.37703 120 8.58025 120 5.97794C120 4.05565 119.93 3.65712 119.344 2.55527C118.828 1.54729 118.453 1.17214 117.445 0.656421L116.202 0H107.107H98.0107L96.7682 0.656421ZM107.154 23.5834L108.537 23.9818L108.466 30.6399L108.396 37.3207L107.833 37.7664C107.107 38.376 106.497 38.3287 105.817 37.6259L105.231 37.0629V30.1243C105.231 24.9431 105.302 23.2083 105.513 23.2083C105.654 23.2083 106.404 23.3722 107.154 23.5834ZM107.037 43.9083C106.685 49.3706 105.302 55.7942 103.567 60.1073C102.442 62.9207 102.09 63.5303 101.504 63.5303C101.27 63.5303 100.355 62.944 99.4644 62.2172C96.8855 60.1306 96.9561 60.4823 98.6909 58.6776C102.488 54.7389 104.997 49.1827 105.817 42.9469C105.958 41.8457 106.029 41.7284 106.568 41.7284H107.177L107.037 43.9083Z" fill="white"/>
<path d="M58.1098 39.2908C54.9446 40.1115 48.5216 43.8623 43.036 48.1055C37.6676 52.2546 3.62875 79.636 2.97185 80.3396C1.8233 81.5347 0.69806 83.7153 0.322981 85.4261C-0.0047838 86.8565 -0.0287835 89.013 0.0185299 100.922L0.0884748 114.754L0.745382 116.089C1.49554 117.59 2.62077 118.692 4.16771 119.418C5.03513 119.793 5.83191 119.911 8.17632 119.981C10.8958 120.075 11.1536 120.028 11.7632 119.559C12.6306 118.879 12.6539 117.684 11.7865 117.004C11.2476 116.582 10.8252 116.512 8.71597 116.512C5.92585 116.512 4.96449 116.207 4.12108 115.011C3.67538 114.402 3.60544 113.909 3.53481 111.823L3.44087 109.361L27.845 89.7865C41.2545 79.0265 52.319 70.1885 52.413 70.1651C52.5069 70.1185 52.788 70.7041 52.9992 71.4543C54.0305 74.9945 57.2657 77.2217 61.3915 77.2217C66.2209 77.2217 68.7759 75.6507 76.5592 67.9613L80.5679 63.976L80.755 65.3357C81.0835 67.938 80.1222 70.7041 78.2234 72.7201C77.6612 73.3296 65.2129 83.4101 50.5609 95.1548L23.9063 116.512H21.1402C18.1869 116.535 17.7412 116.676 17.3661 117.707C17.1083 118.364 17.3894 119.254 17.9757 119.7C18.3034 119.957 22.1722 120.005 37.7849 120.028C59.3289 120.028 59.2583 120.028 62.4701 118.504C63.5954 117.941 66.0097 116.183 70.3235 112.737C77.9889 106.595 78.0362 106.548 78.0362 105.587C78.0362 104.72 77.1455 103.852 76.2781 103.852C75.9263 103.852 73.3474 105.775 69.0337 109.244C65.3535 112.198 61.72 114.941 60.9698 115.316C58.6487 116.488 57.9452 116.535 43.2472 116.464L29.6737 116.394L46.3884 102.985C55.5775 95.6005 63.197 89.6226 63.3142 89.6932C63.4075 89.7632 63.5014 89.9977 63.5014 90.2089C63.5014 91.053 64.8612 93.444 65.8459 94.3114C68.6353 96.843 73.5113 97.2647 77.6138 95.3194C79.2314 94.5459 82.2087 92.1542 85.3739 89.107C86.757 87.7705 87.9522 86.7392 88.0694 86.8332C88.1634 86.9264 88.2333 87.9817 88.21 89.1536C88.1867 92.7405 87.1321 94.6159 83.6151 97.5466C82.2087 98.6951 81.2474 99.6798 81.1774 100.032C80.8723 101.25 82.0449 102.446 83.24 102.117C84.2247 101.86 88.4445 98.1322 89.4758 96.6085C91.8202 93.1156 92.4531 88.8018 91.164 85.1683C90.7889 84.1137 90.7656 83.7852 91.0001 83.4808C91.1407 83.2696 91.9848 82.3082 92.8282 81.3236C95.9228 77.69 98.1499 73.7287 98.5716 71.1025C98.7828 69.6728 98.1499 67.7268 97.1652 66.8594C95.0087 64.9607 91.9848 65.2891 86.6157 67.9846C85.3499 68.6415 84.2953 69.1572 84.272 69.1572C84.2247 69.1572 84.2247 68.0785 84.2247 66.7421C84.2487 64.8667 84.1314 63.976 83.7091 62.6163L83.1701 60.8814L83.8729 59.9208C85.2094 58.1386 87.1554 54.7396 87.6477 53.3332C88.6324 50.5671 87.8822 47.4959 86.0068 46.5345C82.3027 44.6125 75.1529 47.777 64.4628 56.0054C62.728 57.3185 61.1803 58.4671 61.0398 58.5137C60.8526 58.5843 60.7586 58.1626 60.7353 57.2719C60.712 56.5211 60.5474 55.3725 60.3836 54.7396L60.0791 53.5677L61.0638 52.2779C64.65 47.5192 65.8458 43.8856 64.6973 41.3773C64.1816 40.2288 63.5721 39.6658 62.3995 39.2441C61.251 38.8457 59.7506 38.8457 58.1098 39.2908ZM61.5794 43.2294C61.7899 45.0815 60.0791 48.1055 56.1871 52.6297C53.5149 55.7243 47.7714 61.3505 45.5676 63.0387C42.7075 65.1952 39.3318 65.7341 36.9175 64.4217C35.6983 63.7415 34.9482 62.2885 34.8542 60.4597L34.7843 59.1233L40.4104 54.6224C50.3504 46.6518 57.5235 42.3387 60.5714 42.5026C61.4148 42.5492 61.5088 42.6198 61.5794 43.2294ZM84.3186 49.7463C84.7877 50.2154 84.6238 51.8562 83.9902 53.216C82.6778 56.0294 78.5519 61.1159 73.5353 66.016C69.7139 69.7901 67.0177 72.0638 65.5407 72.7674C63.2436 73.8693 60.2197 73.9866 58.4142 73.0485C56.9372 72.2984 56.1171 70.7514 55.9766 68.5009L55.8826 67.3051L60.3369 63.7182C65.4708 59.569 68.5413 57.2246 71.7065 55.0681C77.6845 50.9655 83.2167 48.6444 84.3186 49.7463ZM56.7966 60.483C56.5861 61.0693 56.0698 61.9834 55.6714 62.523C55.2497 63.1086 44.6536 71.7594 29.4159 83.9731C15.3968 95.2255 3.81595 104.462 3.69869 104.508C3.39424 104.626 3.44087 87.7239 3.746 86.3175C4.30828 83.598 4.42554 83.4808 18.3741 72.2984C28.5012 64.1639 31.2913 62.0307 31.4319 62.3351C31.5258 62.5463 31.7836 63.2258 31.9942 63.8827C32.9322 66.4843 35.7689 68.3597 39.2379 68.6182C43.6922 68.9693 47.1152 66.9766 54.1245 59.9674L57.0545 57.0374L57.1251 58.2326C57.1717 58.9361 57.0312 59.8268 56.7966 60.483ZM95.0087 69.9073C95.7822 72.0872 92.078 77.4322 84.6238 84.8638C77.8484 91.6386 75.7858 92.9517 72.0583 92.9284C68.5653 92.9284 67.1823 91.6152 66.6659 87.8878L66.5254 86.8092L71.9877 82.4728C79.2314 76.7527 79.8177 76.307 83.1468 74.1271C88.0927 70.892 92.0081 69.0865 93.8602 69.2038C94.6336 69.2744 94.8208 69.3684 95.0087 69.9073Z" fill="white"/>
</svg>
