<svg width="104" height="23" viewBox="0 0 104 23" fill="none" xmlns="http://www.w3.org/2000/svg">
<path d="M1.97928 9.75C1.15085 9.75 0.479279 10.4216 0.479279 11.25C0.479279 12.0784 1.15085 12.75 1.97928 12.75V9.75ZM103.04 12.3107C103.626 11.7249 103.626 10.7751 103.04 10.1893L93.494 0.643398C92.9082 0.0576118 91.9585 0.0576118 91.3727 0.643398C90.7869 1.22918 90.7869 2.17893 91.3727 2.76472L99.858 11.25L91.3727 19.7353C90.7869 20.3211 90.7869 21.2708 91.3727 21.8566C91.9585 22.4424 92.9082 22.4424 93.494 21.8566L103.04 12.3107ZM1.97928 12.75H101.979V9.75H1.97928V12.75Z" fill="#E6E6E6"/>
</svg>
