<svg width="403" height="50" viewBox="0 0 403 50" fill="none" xmlns="http://www.w3.org/2000/svg">
<path d="M187.129 31.0929L374.361 31.3946L365.607 36.3226C360.767 39.0379 356.648 41.351 356.442 41.5522C355.927 42.055 360.767 50 361.694 50C362.518 50 401.653 28.1764 402.992 26.9696C403.61 26.3662 367.564 1.42495 363.96 0.0169763C363.342 -0.184163 361.591 1.42495 360.149 3.63748L357.368 7.76083L364.372 12.4876C368.182 15.203 372.508 18.1195 373.95 19.0246C376.318 20.6337 365.505 20.7343 188.159 20.7343L5.41627e-06 20.8349V25.8633V30.8918L187.129 31.0929Z" fill="#8F8F8F"/>
</svg>
