<svg width="40" height="40" viewBox="0 0 40 40" fill="none" xmlns="http://www.w3.org/2000/svg">
<path d="M18.0883 0.0500893C13.4226 0.526817 9.17114 2.53532 5.87312 5.82552C-1.95771 13.6407 -1.95771 26.3014 5.87312 34.1166C9.0461 37.2817 12.9146 39.1808 17.5412 39.8373C18.4712 39.9701 21.5426 39.9623 22.5039 39.8295C27.0367 39.2043 31.0146 37.2505 34.1407 34.1087C37.767 30.459 39.7911 25.8168 39.9865 20.6744C40.1897 15.1178 38.0952 9.78783 34.1329 5.82552C31.0615 2.74633 27.1696 0.800349 22.7774 0.151687C21.824 0.0110133 19.0496 -0.0515083 18.0883 0.0500893ZM22.8946 3.00424C26.5209 3.66071 29.6079 5.27064 32.1557 7.8184C35.4302 11.093 37.1965 15.3523 37.1965 19.971C37.1965 26.5436 33.5311 32.4363 27.5994 35.3982C25.2392 36.5783 22.7149 37.1645 20.003 37.1645C15.392 37.1645 11.1171 35.3904 7.85037 32.1237C5.26354 29.5368 3.66142 26.4186 2.98932 22.6673C2.79393 21.5497 2.79393 18.3924 2.98932 17.2748C3.66142 13.5235 5.26354 10.4052 7.85037 7.8184C10.6404 5.02837 14.0166 3.395 18.0883 2.85575C19.0496 2.7307 21.8708 2.81667 22.8946 3.00424Z" fill="#3D3D3D"/>
<path d="M19.3543 10.5459C18.479 10.7882 17.8694 11.5072 17.8694 12.2965C17.8694 13.3203 18.6744 14.094 19.8154 14.1722C21.0971 14.2503 22.1131 13.4453 22.1131 12.3434C22.1053 11.0852 20.6985 10.163 19.3543 10.5459Z" fill="#3D3D3D"/>
<path d="M19.3856 16.6965C18.8386 16.7903 18.3775 17.0482 18.1508 17.3842L17.9711 17.6577L17.9867 22.9486L18.0101 28.2474L18.2759 28.5209C18.6979 28.9507 19.2215 29.1461 20.003 29.1539C20.6048 29.1539 20.722 29.1305 21.1909 28.896C22.1053 28.4427 22.035 28.9664 22.035 22.8392V17.5561L21.7927 17.2826C21.3707 16.7981 20.3078 16.5402 19.3856 16.6965Z" fill="#3D3D3D"/>
</svg>
