<svg width="32" height="21" viewBox="0 0 32 21" fill="none" xmlns="http://www.w3.org/2000/svg">
<path d="M0.381661 12.4438C0.838107 15.8311 3.12034 18.5518 6.38753 19.6088C7.79891 20.0713 7.21033 20.0412 15.6966 20.0412C24.1829 20.0412 23.5943 20.0713 25.0057 19.6088C26.4051 19.1584 27.5042 18.4857 28.5552 17.4347C29.7864 16.1975 30.5131 14.8521 30.9035 13.0864C31.0356 12.5098 31.0416 12.3357 31.0416 10.1916C31.0416 8.05949 31.0296 7.8673 30.9035 7.30274C30.5131 5.51299 29.7564 4.07158 28.5552 2.82235C27.2399 1.447 25.7324 0.600174 23.8586 0.179762L23.234 0.0416266H15.6966H8.15926L7.53465 0.179762C5.72088 0.588162 4.33352 1.3449 3.01824 2.65419C1.67893 3.97548 0.910178 5.38687 0.495773 7.27271C0.381661 7.78922 0.363643 8.0775 0.351632 9.95134C0.33962 11.1045 0.351632 12.2276 0.381661 12.4438ZM2.74797 10.642H3.97317L4.00921 10.7982C4.03323 10.8883 4.2074 11.1165 4.39959 11.3027C4.9281 11.8312 4.98216 11.8432 7.40853 11.8432C9.6307 11.8432 9.81688 11.8192 10.2793 11.4828C10.4175 11.3807 10.6157 11.1585 10.7178 10.9723L10.8979 10.648L12.5556 10.63L14.2072 10.612L14.3513 10.4438C14.5075 10.2636 14.5435 9.94533 14.4294 9.72912C14.2913 9.47688 14.051 9.44084 12.4294 9.44084H10.9039L10.7178 9.11052C10.6157 8.92433 10.4175 8.70212 10.2793 8.60002C9.81688 8.26369 9.6307 8.23966 7.40853 8.23966C4.98216 8.23966 4.9281 8.25167 4.39959 8.78019C4.2074 8.96637 4.03323 9.1946 4.00921 9.28469L3.97317 9.44084H2.74797H1.52278V8.88229C1.52278 5.63911 3.76897 2.60614 6.93406 1.57313C8.17127 1.17073 7.82894 1.18275 15.6966 1.18275C22.171 1.18275 22.8616 1.19476 23.3601 1.28485C25.1859 1.63319 26.8315 2.5701 27.9726 3.91542C28.6813 4.75024 29.1438 5.56704 29.4801 6.57603C29.8164 7.57901 29.8705 8.08351 29.8705 10.2276C29.8705 12.3297 29.8224 12.7801 29.5041 13.729C28.5372 16.6239 25.9426 18.5878 22.7235 18.8701C21.8046 18.9482 9.58866 18.9482 8.66976 18.8701C5.44461 18.5878 2.85608 16.6239 1.88313 13.723C1.63088 12.9543 1.53479 12.3537 1.52878 11.4348L1.52278 10.642H2.74797ZM5.22239 9.59699L5.38455 9.44084H7.42054H9.45653L9.60067 9.59099C9.72079 9.7051 9.75082 9.79519 9.75082 10.0414C9.75082 10.2877 9.72079 10.3778 9.60067 10.4919L9.45653 10.642H7.42054H5.38455L5.22239 10.4859C5.09627 10.3597 5.06624 10.2697 5.06624 10.0414C5.06624 9.8132 5.09627 9.72312 5.22239 9.59699Z" fill="white"/>
</svg>
