<svg width="283" height="109" viewBox="0 0 283 109" fill="none" xmlns="http://www.w3.org/2000/svg">
<g clip-path="url(#clip0_13_2)">
<path d="M14.0733 60.0929L241.272 60.3946L230.649 65.3226C224.775 68.0379 219.776 70.351 219.527 70.5522C218.902 71.055 224.775 79 225.9 79C226.9 79 274.389 57.1764 276.014 55.9696C276.763 55.3662 233.023 30.4249 228.649 29.017C227.9 28.8158 225.775 30.4249 224.025 32.6375L220.651 36.7608L229.149 41.4876C233.773 44.203 239.022 47.1195 240.772 48.0246C243.646 49.6337 230.524 49.7343 15.323 49.7343L-213 49.8349V54.8633V59.8918L14.0733 60.0929Z" fill="#BEA67C"/>
</g>
<defs>
<clipPath id="clip0_13_2">
<rect width="283" height="109" fill="white"/>
</clipPath>
</defs>
</svg>
