<svg width="30" height="30" viewBox="0 0 30 30" fill="none" xmlns="http://www.w3.org/2000/svg">
<path d="M3.75 0.058588C3.28125 0.158197 2.66602 0.503901 2.37305 0.837885C2.06836 1.17773 1.69336 1.91601 1.57617 2.40234C1.45313 2.88281 1.45313 27.1172 1.57617 27.5977C1.69336 28.084 2.06836 28.8223 2.37305 29.1621C2.68945 29.5254 3.29883 29.8477 3.83789 29.9473C4.56445 30.082 5.64844 29.8477 6.5039 29.373C7.85742 28.6113 26.5488 17.8945 26.8183 17.7187C27.2754 17.4199 27.9433 16.7402 28.166 16.3477C28.6582 15.4746 28.6582 14.5254 28.166 13.6523C27.9433 13.2598 27.2754 12.5801 26.8183 12.2812C26.5488 12.1055 7.85742 1.38867 6.5039 0.626947C5.64258 0.146479 4.48242 -0.0937557 3.75 0.058588Z" fill="white"/>
</svg>
