<?xml version="1.0" standalone="no"?>
<!DOCTYPE svg PUBLIC "-//W3C//DTD SVG 20010904//EN"
 "http://www.w3.org/TR/2001/REC-SVG-20010904/DTD/svg10.dtd">
<svg version="1.0" xmlns="http://www.w3.org/2000/svg"
 width="352.000000pt" height="143.000000pt" viewBox="0 0 352.000000 143.000000"
 preserveAspectRatio="xMidYMid meet">

<g transform="translate(0.000000,143.000000) scale(0.100000,-0.100000)"
fill="#000000" stroke="none">
<path d="M1045 1059 c-286 -16 -313 -19 -308 -40 6 -22 -15 -26 -37 -6 -12 10
-12 9 -1 -5 12 -16 11 -18 -10 -18 -13 0 -31 -5 -39 -10 -11 -7 -6 -8 18 -4
21 4 32 3 32 -5 0 -6 5 -11 11 -11 6 0 17 -6 25 -14 12 -13 7 -15 -41 -21 -30
-4 -55 -11 -55 -15 0 -4 -37 -10 -82 -14 -44 -4 -88 -11 -97 -17 -12 -8 -5 -9
24 -4 75 12 193 20 189 13 -3 -5 -20 -8 -39 -8 -20 0 -40 -7 -47 -16 -39 -50
-89 -90 -114 -93 -16 -1 -40 -4 -54 -5 -14 -2 -31 -4 -38 -4 -7 -1 -11 -6 -8
-11 3 -5 -7 -23 -23 -40 l-29 -31 48 0 c26 0 70 4 98 10 28 5 126 12 218 16
186 7 192 3 84 -49 -30 -15 -62 -31 -70 -37 -49 -33 -192 -92 -246 -101 -80
-14 -83 -21 -6 -12 53 6 56 5 43 -11 -8 -9 -20 -15 -27 -12 -6 2 -20 -1 -30
-8 -9 -7 -26 -11 -37 -8 -19 5 -19 4 -1 -17 10 -11 23 -21 29 -21 5 0 3 5 -5
10 -8 5 -13 10 -10 11 52 8 70 7 67 -4 -2 -13 12 -13 51 -1 13 4 22 2 22 -5 0
-6 -10 -11 -22 -11 -22 0 -63 -19 -43 -20 6 0 3 -5 -5 -10 -10 -7 0 -8 33 -4
42 6 47 5 41 -10 -5 -14 0 -16 36 -14 40 3 43 1 47 -24 3 -23 0 -26 -19 -22
-13 2 -17 1 -10 -2 10 -5 8 -10 -8 -21 -13 -9 -18 -19 -13 -24 11 -11 45 -1
38 11 -3 4 4 10 15 13 22 6 28 -8 8 -16 -35 -12 6 -13 82 -2 47 7 153 16 235
19 558 24 771 38 794 53 13 8 20 10 17 4 -12 -19 422 1 634 29 42 6 93 13 114
15 20 3 46 10 57 16 11 6 32 8 47 5 31 -6 87 19 62 27 -41 14 -41 17 0 12 25
-4 49 -10 55 -16 5 -5 13 -9 18 -9 5 0 2 7 -7 15 -8 8 -24 15 -36 15 -12 0
-19 4 -16 8 3 5 -16 7 -42 6 l-47 -3 40 13 c33 12 36 14 15 15 -40 2 -4 17 65
27 l60 8 -50 6 -50 5 55 9 c44 7 50 10 31 15 -20 5 -8 11 55 26 43 10 83 22
88 27 6 4 19 8 31 8 12 0 30 7 41 15 18 13 15 14 -28 15 -34 0 -48 4 -48 14 0
10 -10 13 -35 11 -20 -2 -33 1 -30 6 4 5 20 9 37 9 23 0 29 4 24 15 -3 10 1
15 12 15 9 0 23 4 31 9 9 6 -22 8 -82 5 -97 -4 -116 0 -76 15 17 6 10 8 -27 9
-98 4 -135 14 -95 27 12 3 18 11 15 17 -4 7 -2 8 5 4 6 -4 17 -3 24 2 7 6 48
16 92 22 87 14 125 31 54 24 -24 -2 8 8 71 22 63 14 140 34 170 44 53 18 53
19 20 20 -34 1 -34 1 -12 13 19 11 7 13 -80 11 -57 -2 -133 -8 -169 -13 -153
-25 -485 -25 -424 0 11 4 35 8 53 8 17 1 32 5 32 10 0 9 -228 6 -335 -4 -211
-20 -272 -24 -372 -28 -62 -2 -120 1 -129 6 -13 7 -15 6 -9 -3 6 -10 -3 -12
-46 -7 -30 3 -69 9 -88 13 -23 5 -32 4 -28 -3 8 -13 -111 -12 -131 1 -8 5 -45
5 -82 2 -81 -8 -108 10 -30 20 74 10 61 25 -17 20 -57 -4 -61 -4 -23 3 25 5
59 13 75 19 29 10 29 10 5 12 -14 2 -50 2 -80 2 -46 -1 -50 1 -25 7 17 5 28
10 25 11 -12 5 -94 5 -195 -1z m132 -15 c-3 -3 -12 -4 -19 -1 -8 3 -5 6 6 6
11 1 17 -2 13 -5z m-399 -131 c-10 -2 -26 -2 -35 0 -10 3 -2 5 17 5 19 0 27
-2 18 -5z m1839 -459 c-3 -3 -12 -4 -19 -1 -8 3 -5 6 6 6 11 1 17 -2 13 -5z"/>
<path d="M235 690 c-4 -6 5 -10 19 -10 14 0 29 0 33 -1 4 0 9 4 11 10 5 14
-55 15 -63 1z"/>
<path d="M2948 683 c6 -2 18 -2 25 0 6 3 1 5 -13 5 -14 0 -19 -2 -12 -5z"/>
<path d="M3028 673 c6 -2 18 -2 25 0 6 3 1 5 -13 5 -14 0 -19 -2 -12 -5z"/>
<path d="M2745 490 c-4 -6 -2 -9 3 -8 5 2 19 -8 31 -22 20 -23 22 -24 34 -8 8
10 18 14 22 10 5 -4 5 -1 0 7 -6 11 -3 13 13 9 12 -4 19 -2 16 3 -3 5 -23 6
-45 3 -24 -4 -44 -2 -53 5 -10 8 -16 9 -21 1z"/>
</g>
</svg>
