<?xml version="1.0" standalone="no"?>
<!DOCTYPE svg PUBLIC "-//W3C//DTD SVG 20010904//EN"
 "http://www.w3.org/TR/2001/REC-SVG-20010904/DTD/svg10.dtd">
<svg version="1.0" xmlns="http://www.w3.org/2000/svg"
 width="920.000000pt" height="500.000000pt" viewBox="0 0 920.000000 500.000000"
 preserveAspectRatio="xMidYMid meet">

<g transform="translate(0.000000,500.000000) scale(0.100000,-0.100000)"
fill="#000000" stroke="none">
<path d="M6446 3031 c10 -10 72 -26 63 -17 -4 4 -21 11 -39 16 -19 5 -29 6
-24 1z"/>
<path d="M6690 3020 c0 -5 5 -10 11 -10 5 0 7 -4 4 -10 -3 -5 3 -10 14 -10 19
0 20 2 9 20 -13 21 -38 27 -38 10z"/>
<path d="M6815 3016 c-71 -13 -71 -20 -3 -29 24 -4 41 -1 45 6 5 7 14 12 22
12 8 0 16 6 19 13 2 6 0 11 -5 11 -4 -1 -39 -7 -78 -13z"/>
<path d="M7005 3020 c-15 -6 -11 -8 17 -6 20 1 40 5 44 9 10 10 -36 8 -61 -3z"/>
<path d="M6938 3013 c7 -3 16 -2 19 1 4 3 -2 6 -13 5 -11 0 -14 -3 -6 -6z"/>
<path d="M5731 2999 c-53 -10 -71 -24 -42 -32 12 -3 23 -1 26 4 3 4 19 6 34 3
16 -4 32 -1 35 5 4 6 17 11 29 11 12 0 29 5 37 10 19 12 -55 12 -119 -1z"/>
<path d="M6875 2980 c-14 -16 -15 -20 -4 -20 16 0 39 19 39 32 0 14 -16 9 -35
-12z"/>
<path d="M4982 2941 c-19 -12 38 -22 58 -10 13 7 13 8 -2 9 -9 0 -22 2 -30 5
-7 3 -19 1 -26 -4z"/>
<path d="M5118 2943 c7 -3 16 -2 19 1 4 3 -2 6 -13 5 -11 0 -14 -3 -6 -6z"/>
<path d="M6803 2943 c-13 -2 -23 -8 -23 -13 0 -5 -7 -7 -15 -3 -9 3 -23 -1
-33 -9 -9 -7 -30 -20 -47 -27 -16 -7 -38 -17 -47 -22 -24 -12 -78 -11 -78 1 0
6 7 13 15 16 27 11 16 24 -19 24 -19 0 -38 5 -41 10 -10 15 -35 12 -35 -5 0
-8 -4 -15 -10 -15 -5 0 -10 7 -10 15 0 20 -25 19 -49 -2 -19 -15 -19 -17 -3
-29 9 -7 21 -9 27 -4 6 5 21 2 35 -5 l25 -14 -32 -1 c-23 0 -33 -5 -33 -15 0
-8 -10 -16 -22 -17 -13 0 -36 -3 -53 -6 -89 -13 -392 9 -406 29 -7 12 -139 17
-139 6 0 -5 -12 -6 -26 -3 -21 6 -25 4 -21 -8 5 -12 -1 -16 -26 -17 -47 -2
-58 0 -100 20 -20 10 -40 15 -43 10 -3 -5 3 -12 13 -16 15 -6 12 -9 -12 -13
-16 -3 -45 0 -64 8 -19 7 -42 11 -53 9 -10 -3 -20 -1 -23 4 -3 4 -12 6 -21 2
-12 -5 -12 -7 3 -18 9 -7 23 -11 30 -8 7 3 13 0 13 -6 0 -7 -50 -9 -170 -4
-156 6 -170 5 -164 -10 5 -15 -2 -17 -47 -18 -30 0 -70 -1 -89 -3 -19 -1 -41
4 -48 11 -16 15 -32 17 -32 4 0 -5 8 -12 18 -14 18 -5 -25 -9 -93 -9 -22 0
-43 -6 -47 -12 -6 -8 -10 -7 -16 2 -6 9 -34 11 -107 8 -54 -3 -103 -2 -109 3
-6 5 -35 5 -64 1 -36 -4 -58 -3 -70 6 -13 10 -23 10 -49 -1 -30 -13 -33 -12
-34 3 0 15 -1 15 -7 -1 -7 -16 -9 -16 -26 4 -13 16 -15 24 -6 29 14 8 -119 23
-141 16 -8 -3 -56 -2 -107 2 -51 4 -96 4 -98 0 -5 -7 79 -13 114 -9 20 3 14
-15 -10 -27 -32 -15 -79 -21 -180 -23 -49 -1 -88 -5 -88 -10 0 -4 -22 -6 -49
-4 -37 3 -51 0 -55 -11 -4 -10 -13 -13 -29 -9 -15 4 -30 1 -40 -9 -20 -21 -67
-21 -67 -1 0 20 -9 19 -32 -2 -18 -16 -18 -16 -12 0 3 10 1 17 -5 17 -6 0 -11
-9 -11 -20 0 -11 -4 -20 -10 -20 -9 0 -13 16 -13 46 1 29 -38 2 -41 -29 -1 -9
-27 -27 -40 -27 -5 0 -1 8 8 19 16 18 16 19 -9 25 -35 9 -95 -3 -95 -19 0 -6
-11 -17 -25 -23 -24 -11 -25 -10 -16 7 9 15 7 20 -10 24 -12 3 -18 10 -14 16
8 14 -8 14 -22 0 -16 -16 -115 -49 -127 -42 -5 4 -7 -4 -3 -16 5 -20 2 -22
-19 -18 -13 2 -24 0 -24 -4 0 -5 -4 -9 -10 -9 -5 0 -10 9 -10 20 0 26 -13 25
-25 -2 -8 -18 -19 -22 -57 -22 -25 -1 -49 -4 -52 -7 -4 -3 -25 -3 -46 1 -22 4
-43 3 -46 -1 -3 -5 -25 -9 -49 -9 -24 0 -45 -5 -47 -12 -2 -6 -21 -12 -43 -12
-21 -1 -40 -7 -43 -14 -2 -7 -11 -12 -20 -12 -15 0 -15 2 -2 10 12 8 11 10 -7
10 -17 0 -23 -6 -23 -20 0 -12 6 -20 13 -19 6 1 21 1 32 0 15 -1 17 -3 6 -10
-11 -7 -11 -10 0 -17 7 -4 14 -3 17 4 2 7 8 10 13 6 5 -3 9 0 9 5 0 6 10 11
21 11 18 0 19 -2 9 -15 -11 -13 -10 -14 6 -8 10 3 21 10 24 13 3 4 14 4 25 -1
20 -7 20 -8 -1 -8 -12 -1 -31 -10 -44 -21 -17 -14 -27 -17 -41 -10 -26 14 -59
12 -59 -4 0 -21 -25 -26 -47 -11 -18 13 -22 11 -41 -9 -12 -14 -37 -27 -61
-31 -23 -4 -41 -10 -41 -13 0 -7 -29 -9 -150 -11 -69 -1 -76 -3 -86 -25 -10
-22 -9 -26 20 -38 17 -7 65 -14 106 -15 41 -1 84 -2 95 -3 13 0 21 -7 21 -19
0 -13 -6 -17 -21 -13 -11 3 -22 8 -25 12 -3 4 -16 4 -29 -1 -17 -7 -21 -13
-13 -22 5 -6 8 -20 6 -31 -2 -14 0 -16 9 -7 8 8 15 7 28 -5 10 -9 19 -11 23
-5 4 5 2 12 -4 16 -22 13 -9 26 19 20 52 -11 113 -8 122 6 9 14 9 13 9 -28 0
-4 -25 -7 -55 -7 -30 0 -55 -4 -55 -8 0 -11 -28 -18 -132 -33 -25 -3 -52 -12
-58 -20 -13 -16 -6 -18 79 -30 55 -7 65 -13 50 -31 -15 -18 -39 -18 -39 1 0
18 -51 20 -82 4 -17 -9 -24 -8 -33 4 -8 11 -24 15 -51 13 -40 -3 -44 -6 -44
-31 0 -17 35 -21 45 -5 3 6 11 10 16 10 6 0 7 -5 3 -12 -5 -8 -2 -9 9 -5 9 3
19 2 23 -4 4 -7 -20 -10 -69 -8 -41 1 -78 -1 -83 -4 -6 -3 -43 -6 -84 -7 -108
-2 -105 -1 -84 -17 10 -7 40 -13 66 -13 28 0 59 -7 74 -16 19 -13 30 -14 48
-6 14 6 27 7 32 2 11 -11 62 -20 154 -27 36 -3 67 -9 70 -14 6 -9 90 -26 205
-40 44 -6 90 -15 102 -21 11 -6 26 -7 32 -4 6 4 29 2 50 -5 32 -9 44 -9 55 0
11 10 45 11 130 6 113 -7 115 -7 109 14 -7 27 13 28 29 1 16 -25 44 -26 50 -2
4 16 16 19 74 19 68 0 69 0 30 -12 -22 -6 -42 -17 -44 -23 -5 -15 24 -16 33
-2 4 6 11 8 16 5 5 -4 21 3 35 14 33 26 44 26 44 1 0 -11 5 -20 11 -20 6 0 8
8 4 19 -6 21 27 51 57 51 25 0 23 -35 -2 -53 -11 -8 -17 -17 -14 -20 10 -10
44 12 44 28 0 8 4 15 10 15 5 0 7 7 4 15 -4 8 -1 15 5 15 6 0 11 6 11 14 0 15
21 26 51 26 10 0 19 5 19 11 0 7 9 9 23 5 12 -4 40 -8 62 -11 22 -2 54 -11 71
-19 29 -15 34 -15 80 6 27 12 63 21 81 19 23 -2 34 3 43 18 6 12 18 21 26 21
8 0 12 -4 9 -10 -3 -5 3 -10 14 -10 12 0 21 -7 21 -15 0 -11 12 -15 46 -15 25
0 43 -3 41 -7 -8 -15 29 -38 58 -37 92 4 131 9 140 19 10 12 170 40 190 34 6
-2 19 2 30 8 25 13 199 22 240 13 17 -4 23 -8 14 -9 -9 0 -19 -8 -23 -16 -3
-8 -10 -15 -17 -15 -6 0 -9 7 -5 15 5 15 -15 21 -28 8 -3 -4 -13 -8 -21 -9 -7
-1 -25 -10 -39 -21 -40 -29 -31 -47 9 -19 18 12 90 14 102 3 2 -3 -13 -11 -34
-17 -21 -7 -42 -19 -46 -26 -4 -8 -16 -14 -26 -14 -10 0 -35 -7 -54 -15 -47
-19 -50 -19 -37 4 14 28 13 31 -15 31 -14 0 -25 5 -25 11 0 8 -4 8 -12 2 -11
-8 -72 -28 -150 -50 -10 -2 -18 0 -18 6 0 6 -4 11 -10 11 -5 0 -10 -7 -10 -15
0 -8 -4 -15 -9 -15 -5 0 -14 7 -21 15 -19 23 -177 21 -209 -4 -44 -34 -33 -35
383 -40 55 0 97 -3 95 -5 -2 -2 -40 -6 -83 -10 -93 -7 -112 -16 -35 -17 69 -1
148 -8 174 -15 31 -10 345 -14 345 -5 0 4 10 13 23 20 19 10 17 10 -18 5 -72
-12 -105 -13 -111 -3 -3 5 -2 9 3 9 4 1 33 3 63 6 30 4 66 6 80 6 17 -1 29 7
35 21 11 24 50 36 142 41 65 4 87 11 77 27 -3 6 8 15 25 22 17 6 31 17 31 24
0 19 25 16 62 -7 18 -11 42 -20 53 -21 17 0 17 -2 -4 -10 -14 -5 -37 -23 -52
-40 -25 -28 -27 -29 -32 -9 -3 13 0 23 9 27 21 8 18 35 -3 29 -10 -3 -30 -8
-45 -12 -31 -7 -28 -24 3 -24 10 0 19 -4 19 -10 0 -10 -14 -12 -157 -15 -50
-1 -88 -7 -97 -15 -33 -26 -17 -32 69 -25 59 5 85 3 85 -4 0 -6 12 -11 26 -11
21 0 25 4 21 19 -7 29 30 34 69 11 39 -25 52 -25 50 -3 -1 20 31 28 70 19 29
-8 32 -26 4 -26 -37 0 -21 -20 18 -22 54 -2 73 0 115 14 30 9 43 9 58 0 23
-15 32 -15 24 -2 -7 11 -4 12 72 16 28 1 61 7 72 13 11 6 31 11 45 11 14 0 27
4 30 9 9 14 352 41 373 28 5 -4 20 -4 33 -2 13 2 28 2 33 -2 6 -4 35 -8 65
-10 30 -3 62 -11 70 -19 14 -14 37 -14 94 2 9 3 19 0 23 -6 3 -5 11 -10 16
-10 6 0 8 4 4 10 -3 5 8 5 26 -2 23 -8 33 -8 38 0 4 6 35 12 69 14 34 1 62 6
62 11 0 5 -21 7 -46 4 -44 -5 -104 10 -104 25 0 12 138 2 155 -12 17 -14 31
-8 20 9 -3 6 -15 11 -26 11 -28 0 -18 24 11 28 13 2 47 17 76 34 49 27 52 31
42 53 -6 13 -16 21 -23 19 -7 -3 -16 -1 -19 4 -5 8 85 28 107 23 4 -1 16 3 25
8 11 6 24 6 32 1 8 -5 21 -5 30 0 9 5 43 11 76 14 101 10 130 24 41 20 -43 -2
-75 1 -72 5 8 14 144 25 158 13 19 -16 153 21 142 39 -3 4 -13 5 -22 2 -18 -7
-12 6 16 39 9 10 18 28 21 41 4 16 27 33 85 60 54 26 75 41 66 47 -8 4 -10 13
-7 19 9 14 -41 34 -72 28 -16 -3 -22 0 -18 8 2 7 -4 15 -15 18 -13 4 -19 14
-19 34 0 16 3 33 7 36 3 4 14 25 24 46 14 32 15 39 3 34 -8 -3 -14 -14 -14
-26 0 -11 -3 -17 -7 -14 -3 4 -18 -3 -31 -15 l-25 -23 7 26 c7 34 -5 39 -69
29 -27 -4 -55 -5 -63 -3 -7 3 -18 0 -26 -6 -9 -8 -22 -8 -38 -2 -26 10 -57 41
-40 41 6 0 12 -4 14 -10 5 -14 68 -25 68 -11 0 6 -4 11 -10 11 -5 0 -10 7 -10
15 0 8 4 15 9 15 5 0 9 12 9 26 0 17 -5 24 -14 20 -7 -3 -19 1 -26 8 -7 7 -19
11 -26 8 -6 -2 -15 3 -18 12 -3 9 -10 16 -15 16 -4 0 -6 -7 -2 -16 5 -14 2
-16 -23 -10 -27 6 -28 5 -10 -9 11 -8 28 -15 39 -15 10 0 16 -4 13 -9 -8 -12
-68 4 -109 30 -18 10 -39 21 -47 25 -8 3 -25 10 -37 15 -13 5 -23 13 -23 19 0
14 39 3 61 -16 10 -9 27 -12 48 -8 33 7 34 16 3 19 -28 3 -75 27 -110 57 -18
15 -37 28 -41 28 -5 0 -7 9 -4 20 6 24 19 26 27 4 4 -9 9 -14 13 -11 8 9 -17
37 -31 36 -6 -1 -21 -4 -33 -6z m-53 -58 c0 -8 -4 -15 -10 -15 -5 0 -10 7 -10
15 0 8 5 15 10 15 6 0 10 -7 10 -15z m98 -65 c-7 -11 -21 -20 -31 -20 -10 0
-17 -6 -15 -12 9 -27 -42 -52 -57 -28 -3 6 -17 7 -30 4 -12 -3 -26 -1 -29 5
-5 7 4 11 23 11 17 0 31 5 31 10 0 6 -6 10 -12 10 -7 0 0 7 17 16 19 10 31 11
33 5 6 -17 52 -13 58 4 4 8 10 15 15 15 5 0 4 -9 -3 -20z m-2703 -10 c-27 -12
-35 -12 -35 0 0 6 12 10 28 9 24 0 25 -1 7 -9z m135 0 c0 -11 -40 -11 -85 0
-25 6 -20 8 28 9 32 0 57 -3 57 -9z m2334 1 c41 12 86 11 86 -1 0 -10 -30 -13
-122 -14 -36 -1 -44 2 -36 11 6 8 16 10 26 4 9 -5 29 -5 46 0z m-2264 -60 c0
-10 -34 -21 -67 -21 -24 0 -33 -19 -10 -21 6 0 -1 -5 -16 -11 -43 -15 -46 0
-7 33 34 27 100 41 100 20z m2554 0 c7 -10 -49 -9 -60 2 -4 4 7 7 24 7 17 0
33 -4 36 -9z m-3524 -31 c-40 -28 -50 -31 -50 -16 0 13 16 20 55 24 6 1 3 -3
-5 -8z m-194 -37 c-10 -10 -19 5 -10 18 6 11 8 11 12 0 2 -7 1 -15 -2 -18z
m1024 13 c0 -3 -4 -8 -10 -11 -5 -3 -10 -1 -10 4 0 6 5 11 10 11 6 0 10 -2 10
-4z m-1184 -68 c2 -2 -21 -8 -51 -14 -48 -9 -55 -8 -55 6 0 13 10 16 51 14 28
-2 53 -4 55 -6z m-276 -18 c-45 -25 -61 -25 -31 0 13 11 33 20 45 20 17 -1 14
-4 -14 -20z m125 10 c-22 -4 -44 -5 -49 -2 -5 3 -7 -2 -3 -11 4 -10 1 -17 -6
-17 -7 0 -13 9 -13 20 0 18 7 20 56 19 55 -1 55 -1 15 -9z m4475 -81 c0 -5 -7
-6 -15 -3 -8 4 -15 13 -15 21 0 13 3 13 15 3 8 -7 15 -16 15 -21z m-5002 -139
c3 -8 -2 -10 -17 -5 -13 4 -28 1 -36 -5 -16 -13 -18 -10 -9 13 7 18 56 16 62
-3z m-103 -10 c-3 -5 -11 -10 -16 -10 -6 0 -7 5 -4 10 3 6 11 10 16 10 6 0 7
-4 4 -10z m4991 -16 c-9 -8 -20 -12 -26 -9 -15 9 -2 25 21 25 19 0 19 -1 5
-16z m-4631 -4 c-3 -5 -11 -10 -16 -10 -6 0 -7 5 -4 10 3 6 11 10 16 10 6 0 7
-4 4 -10z m-105 -26 c0 -8 -4 -12 -10 -9 -5 3 -10 13 -10 21 0 8 5 12 10 9 6
-3 10 -13 10 -21z m24 11 c-4 -8 -7 -15 -9 -15 -2 0 -5 7 -9 15 -3 9 0 15 9
15 9 0 12 -6 9 -15z m33 0 c0 -8 -4 -15 -9 -15 -4 0 -8 7 -8 15 0 8 4 15 8 15
5 0 9 -7 9 -15z m1692 6 c23 -15 -3 -20 -29 -5 -22 12 -23 13 -5 13 11 1 26
-3 34 -8z m-1775 -30 c3 -5 -5 -8 -18 -7 -13 0 -22 4 -19 9 6 10 31 9 37 -2z
m1803 -7 c-3 -3 -12 -4 -19 -1 -8 3 -5 6 6 6 11 1 17 -2 13 -5z m2642 -8 c-2
-2 -17 -6 -34 -10 -22 -5 -26 -4 -15 4 14 9 59 15 49 6z m79 -3 c-10 -2 -28
-2 -40 0 -13 2 -5 4 17 4 22 1 32 -1 23 -4z m-157 -26 c-13 -13 -26 -3 -16 12
3 6 11 8 17 5 6 -4 6 -10 -1 -17z m-2703 -4 c-6 -7 -17 -13 -24 -13 -8 0 -11
-6 -8 -15 7 -17 -21 -21 -31 -5 -4 6 -16 3 -31 -6 -28 -19 -29 -18 -38 14 -7
20 -4 22 33 22 22 0 42 4 46 10 3 5 19 8 34 7 22 -1 27 -5 19 -14z m52 13 c0
-2 -7 -7 -16 -10 -8 -3 -12 -2 -9 4 6 10 25 14 25 6z m-320 -26 c0 -5 -5 -10
-11 -10 -5 0 -7 5 -4 10 3 6 8 10 11 10 2 0 4 -4 4 -10z m24 -5 c-4 -8 -8 -15
-10 -15 -2 0 -4 7 -4 15 0 8 4 15 10 15 5 0 7 -7 4 -15z m86 4 c0 -7 -62 -39
-74 -39 -8 0 -8 35 1 43 8 8 73 4 73 -4z m-1191 -24 c29 2 39 0 30 -6 -10 -6
-2 -9 24 -9 22 0 36 -4 32 -10 -3 -5 -11 -7 -18 -5 -7 2 -37 6 -67 9 -30 2
-73 8 -95 12 l-40 8 35 6 c19 3 40 3 45 -1 6 -3 30 -5 54 -4z m4131 5 c0 -5
-9 -10 -21 -10 -11 0 -17 5 -14 10 3 6 13 10 21 10 8 0 14 -4 14 -10z m-4340
-18 c0 -5 -20 -9 -45 -11 -26 -1 -45 2 -45 9 0 5 20 10 45 10 25 0 45 -4 45
-8z m1350 -22 c-14 -4 -29 -4 -35 -1 -5 3 1 8 15 11 14 4 29 4 35 1 5 -3 -1
-8 -15 -11z m150 16 c0 -3 -4 -8 -10 -11 -5 -3 -10 -1 -10 4 0 6 5 11 10 11 6
0 10 -2 10 -4z m-1370 -16 c12 -8 9 -10 -12 -10 -16 0 -28 5 -28 10 0 13 20
13 40 0z m910 2 c0 -4 -15 -9 -32 -10 -25 -2 -29 0 -18 8 18 12 50 13 50 2z
m430 -7 c0 -8 -9 -15 -20 -15 -20 0 -26 11 -13 23 12 13 33 7 33 -8z m2958 1
c9 -9 -111 -5 -133 4 -13 5 8 7 54 5 40 -2 76 -6 79 -9z m-3895 -3 c-7 -2 -19
-2 -25 0 -7 3 -2 5 12 5 14 0 19 -2 13 -5z m-178 -13 c-3 -5 -14 -10 -23 -10
-15 0 -15 2 -2 10 20 13 33 13 25 0z m625 -20 c0 -13 -11 -13 -30 0 -12 8 -11
10 8 10 12 0 22 -4 22 -10z m325 1 c3 -5 1 -13 -5 -16 -15 -9 -43 3 -35 15 8
13 32 13 40 1z m22 -13 c-3 -8 -6 -5 -6 6 -1 11 2 17 5 13 3 -3 4 -12 1 -19z
m40 16 c-3 -3 -12 -4 -19 -1 -8 3 -5 6 6 6 11 1 17 -2 13 -5z m-1510 -10 c-3
-3 -12 -4 -19 -1 -8 3 -5 6 6 6 11 1 17 -2 13 -5z m2873 -78 c-19 -6 -40 -14
-47 -19 -6 -4 -15 -2 -19 4 -10 16 11 26 59 26 l42 1 -35 -12z m-615 -26 c-3
-5 -12 -10 -18 -10 -7 0 -6 4 3 10 19 12 23 12 15 0z m-1986 -40 c24 0 41 -3
38 -7 -10 -10 -129 -3 -146 8 -12 8 -5 9 24 5 22 -3 60 -6 84 -6z m3781 -30
c0 -5 -2 -10 -4 -10 -3 0 -8 5 -11 10 -3 6 -1 10 4 10 6 0 11 -4 11 -10z
m-3490 -9 c0 -5 -18 -11 -40 -13 -40 -4 -55 7 -22 15 31 8 62 7 62 -2z m1625
-1 c-3 -5 -13 -10 -21 -10 -8 0 -12 5 -9 10 3 6 13 10 21 10 8 0 12 -4 9 -10z
m465 0 c0 -5 -8 -10 -17 -10 -15 0 -16 2 -3 10 19 12 20 12 20 0z m-424 -19
c-4 -6 -14 -7 -23 -4 -15 6 -14 7 3 13 22 9 29 6 20 -9z m1774 15 c0 -11 -19
-15 -25 -6 -3 5 1 10 9 10 9 0 16 -2 16 -4z m-2030 -26 c0 -5 -7 -10 -16 -10
-8 0 -12 5 -9 10 3 6 10 10 16 10 5 0 9 -4 9 -10z m-43 -6 c-3 -3 -12 -4 -19
-1 -8 3 -5 6 6 6 11 1 17 -2 13 -5z m143 -50 c0 -2 -9 -4 -21 -4 -11 0 -18 4
-14 10 5 8 35 3 35 -6z"/>
<path d="M6880 2939 c0 -5 5 -7 10 -4 6 3 10 8 10 11 0 2 -4 4 -10 4 -5 0 -10
-5 -10 -11z"/>
<path d="M4605 2900 c-3 -5 -1 -10 4 -10 6 0 11 5 11 10 0 6 -2 10 -4 10 -3 0
-8 -4 -11 -10z"/>
<path d="M4166 2885 c-11 -8 -15 -15 -10 -15 6 0 19 7 30 15 10 8 15 14 9 14
-5 0 -19 -6 -29 -14z"/>
<path d="M6877 2893 c-12 -11 31 -34 81 -42 26 -5 55 -12 66 -16 14 -6 17 -4
15 10 -4 19 -13 22 -87 32 -23 3 -45 10 -48 14 -6 11 -18 12 -27 2z"/>
<path d="M7150 2890 c0 -5 5 -10 11 -10 5 0 7 5 4 10 -3 6 -8 10 -11 10 -2 0
-4 -4 -4 -10z"/>
<path d="M4000 2880 c0 -5 9 -10 21 -10 11 0 17 5 14 10 -3 6 -13 10 -21 10
-8 0 -14 -4 -14 -10z"/>
<path d="M4070 2880 c0 -14 49 -17 54 -4 3 9 -5 12 -25 12 -16 -1 -29 -4 -29
-8z"/>
<path d="M4248 2883 c7 -3 16 -2 19 1 4 3 -2 6 -13 5 -11 0 -14 -3 -6 -6z"/>
<path d="M5265 2879 c-35 -5 -33 -6 20 -6 33 -1 74 3 90 7 25 7 22 8 -20 7
-27 -1 -68 -4 -90 -8z"/>
<path d="M7086 2871 c-29 -20 -52 -49 -44 -57 3 -2 22 -5 44 -7 21 -1 45 -6
52 -10 8 -5 12 -3 12 7 0 9 -6 16 -14 16 -18 0 -29 31 -20 54 8 20 5 20 -30
-3z"/>
<path d="M3948 2873 c6 -2 18 -2 25 0 6 3 1 5 -13 5 -14 0 -19 -2 -12 -5z"/>
<path d="M4208 2873 c7 -3 16 -2 19 1 4 3 -2 6 -13 5 -11 0 -14 -3 -6 -6z"/>
<path d="M4945 2860 c-3 -5 -1 -10 4 -10 6 0 11 5 11 10 0 6 -2 10 -4 10 -3 0
-8 -4 -11 -10z"/>
<path d="M5998 2863 c6 -2 18 -2 25 0 6 3 1 5 -13 5 -14 0 -19 -2 -12 -5z"/>
<path d="M3043 2832 c-24 -4 -32 -22 -10 -22 15 0 43 18 37 22 -3 2 -15 2 -27
0z"/>
<path d="M3095 2830 c-3 -5 3 -10 14 -10 11 0 23 5 26 10 3 6 -3 10 -14 10
-11 0 -23 -4 -26 -10z"/>
<path d="M2920 2819 c0 -5 5 -7 10 -4 6 3 10 8 10 11 0 2 -4 4 -10 4 -5 0 -10
-5 -10 -11z"/>
<path d="M4418 2823 c7 -3 16 -2 19 1 4 3 -2 6 -13 5 -11 0 -14 -3 -6 -6z"/>
<path d="M2710 2805 c-11 -13 -8 -15 20 -15 21 0 30 4 28 13 -7 18 -33 20 -48
2z"/>
<path d="M2776 2813 c5 -5 11 -11 14 -15 3 -3 14 0 24 8 19 13 18 14 -14 14
-18 0 -29 -3 -24 -7z"/>
<path d="M3885 2810 c-15 -6 -7 -9 29 -9 27 -1 47 1 45 3 -11 9 -56 13 -74 6z"/>
<path d="M3975 2810 c-3 -5 1 -10 10 -10 9 0 13 5 10 10 -3 6 -8 10 -10 10 -2
0 -7 -4 -10 -10z"/>
<path d="M4015 2810 c6 -10 40 -8 51 3 4 4 -7 7 -25 7 -19 0 -30 -4 -26 -10z"/>
<path d="M4744 2811 c3 -5 15 -7 26 -4 28 7 25 13 -6 13 -14 0 -23 -4 -20 -9z"/>
<path d="M2635 2800 c3 -5 16 -10 28 -10 18 0 19 2 7 10 -20 13 -43 13 -35 0z"/>
<path d="M2536 2792 c-14 -13 -4 -23 17 -17 33 11 39 20 12 21 -13 1 -26 -1
-29 -4z"/>
<path d="M3147 2779 c7 -7 15 -10 18 -7 3 3 -2 9 -12 12 -14 6 -15 5 -6 -5z"/>
<path d="M2448 2773 c6 -2 18 -2 25 0 6 3 1 5 -13 5 -14 0 -19 -2 -12 -5z"/>
<path d="M7172 2769 c2 -7 10 -15 17 -17 8 -3 12 1 9 9 -2 7 -10 15 -17 17 -8
3 -12 -1 -9 -9z"/>
<path d="M3678 2763 c7 -3 16 -2 19 1 4 3 -2 6 -13 5 -11 0 -14 -3 -6 -6z"/>
<path d="M3105 2740 c-3 -5 -4 -14 0 -20 7 -11 55 8 55 22 0 11 -48 10 -55 -2z"/>
<path d="M2481 2592 c-18 -6 -13 -22 8 -22 26 0 51 10 51 21 0 8 -35 9 -59 1z"/>
<path d="M2565 2550 c4 -6 11 -8 16 -5 14 9 11 15 -7 15 -8 0 -12 -5 -9 -10z"/>
<path d="M1915 2500 c3 -5 15 -10 26 -10 10 0 19 5 19 10 0 6 -12 10 -26 10
-14 0 -23 -4 -19 -10z"/>
<path d="M2130 2390 c0 -5 5 -10 10 -10 6 0 10 5 10 10 0 6 -4 10 -10 10 -5 0
-10 -4 -10 -10z"/>
<path d="M2255 2329 c-15 -6 -11 -8 18 -8 20 -1 37 1 37 3 0 9 -37 12 -55 5z"/>
<path d="M2130 2224 c0 -9 5 -14 12 -12 18 6 21 28 4 28 -9 0 -16 -7 -16 -16z"/>
<path d="M2180 2214 l-25 -14 29 2 c16 2 31 9 34 16 5 16 -7 15 -38 -4z"/>
<path d="M2021 2216 c12 -10 99 -16 99 -7 0 7 -22 11 -52 11 -28 0 -49 -2 -47
-4z"/>
<path d="M1926 2175 c-3 -9 0 -15 9 -15 9 0 12 6 9 15 -4 8 -7 15 -9 15 -2 0
-5 -7 -9 -15z"/>
<path d="M2012 2161 c12 -20 85 -34 94 -19 3 4 -5 8 -17 8 -18 0 -19 2 -9 15
11 13 6 15 -34 15 -43 0 -45 -1 -34 -19z"/>
<path d="M1836 2111 c-4 -5 -2 -12 3 -15 5 -4 12 -2 15 3 4 5 2 12 -3 15 -5 4
-12 2 -15 -3z"/>
<path d="M4398 2053 c-16 -2 -28 -8 -28 -13 0 -11 71 -1 85 11 9 9 -6 10 -57
2z"/>
<path d="M3450 2011 c0 -5 -8 -12 -17 -14 -15 -4 -15 -5 -2 -6 9 0 22 6 29 14
9 10 9 15 1 15 -6 0 -11 -4 -11 -9z"/>
<path d="M3890 2016 c0 -2 9 -6 20 -9 11 -3 20 -1 20 4 0 5 -9 9 -20 9 -11 0
-20 -2 -20 -4z"/>
<path d="M4110 1990 c-29 -6 -23 -8 33 -9 43 -1 66 3 62 9 -7 11 -42 11 -95 0z"/>
<path d="M4500 1980 c-13 -8 -12 -10 3 -10 9 0 17 5 17 10 0 12 -1 12 -20 0z"/>
<path d="M3428 1973 c-10 -2 -18 -8 -18 -13 0 -15 21 -23 32 -12 6 6 23 10 37
8 14 -2 18 -1 9 1 -10 2 -18 9 -18 14 0 9 -12 10 -42 2z"/>
<path d="M3650 1959 c0 -5 11 -9 25 -9 14 0 25 4 25 9 0 5 -11 9 -25 9 -14 0
-25 -4 -25 -9z"/>
<path d="M3895 1953 c-5 -15 -4 -16 6 -5 17 16 29 15 29 -3 0 -8 5 -15 10 -15
6 0 10 9 10 20 0 26 -45 28 -55 3z"/>
<path d="M6725 1950 c11 -5 34 -8 50 -8 29 0 29 0 5 8 -14 4 -36 8 -50 8 -23
1 -23 0 -5 -8z"/>
<path d="M3790 1940 c-13 -8 -13 -10 2 -10 9 0 20 5 23 10 8 13 -5 13 -25 0z"/>
<path d="M3840 1939 c0 -5 5 -7 10 -4 6 3 10 8 10 11 0 2 -4 4 -10 4 -5 0 -10
-5 -10 -11z"/>
<path d="M5923 1939 c14 -8 22 -8 30 0 8 8 3 11 -18 11 -26 -1 -28 -2 -12 -11z"/>
</g>
</svg>
